<?xml version="1.0" encoding="UTF-8"?>
<!DOCTYPE svg PUBLIC "-//W3C//DTD SVG 1.1//EN" "http://www.w3.org/Graphics/SVG/1.1/DTD/svg11.dtd">
<!-- Creator: CorelDRAW X6 -->
<svg xmlns="http://www.w3.org/2000/svg" xml:space="preserve" width="152px" height="45px" version="1.1" style="shape-rendering:geometricPrecision; text-rendering:geometricPrecision; image-rendering:optimizeQuality; fill-rule:evenodd; clip-rule:evenodd"
viewBox="0 0 21182 6242"
 xmlns:xlink="http://www.w3.org/1999/xlink">
 <defs>
  <style type="text/css">
   <![CDATA[
    .fil0 {fill:#FF7800;fill-rule:nonzero}
   ]]>
  </style>
 </defs>
 <g id="Слой_x0020_1">
  <metadata id="CorelCorpID_0Corel-Layer"/>
  <polygon class="fil0" points="13491,7 11051,7 11283,645 11923,645 11923,3588 12619,3588 12619,645 13317,645 "/>
  <path class="fil0" d="M19881 1969l-650 0 0 -1324 650 0c500,0 605,386 605,662 0,276 -105,662 -605,662zm1301 -659l0 -5c-1,-777 -524,-1298 -1301,-1298l-1900 0 231 638 323 0 0 2946 696 0 0 -983 650 0c777,0 1300,-522 1301,-1298z"/>
  <path class="fil0" d="M1566 0c-709,0 -1265,299 -1566,840l609 338c175,-315 460,-540 957,-540 769,0 1042,528 1062,813l-1373 0 0 696 1373 0c-32,318 -298,812 -1062,812 -451,0 -782,-225 -957,-541l-609 339c301,542 857,840 1566,840 1093,0 1799,-706 1799,-1798 0,-1093 -706,-1799 -1799,-1799z"/>
  <path class="fil0" d="M5600 2950l-916 0 0 -937 916 0c333,0 437,244 437,449 0,204 -86,488 -437,488zm-916 -2305l729 0c138,0 322,92 322,355 0,264 -184,375 -322,375l-729 0 0 -730zm1486 933c0,2 261,-218 261,-614 0,-539 -409,-957 -1018,-957l-1979 0 232 638 322 0 0 2946 1645 0c648,0 1100,-465 1100,-1129 0,-633 -563,-882 -563,-884z"/>
  <path class="fil0" d="M8361 3591c-251,-230 -409,-561 -409,-930 0,-691 552,-1252 1230,-1252 679,0 1231,561 1231,1252 0,369 -159,700 -409,930l871 0c149,-277 234,-594 234,-930 0,-1075 -864,-1949 -1927,-1949 -1062,0 -1926,874 -1926,1949 0,336 84,653 233,930l872 0z"/>
  <path class="fil0" d="M16613 7c250,229 409,560 409,929 0,691 -552,1253 -1230,1253 -679,0 -1231,-562 -1231,-1253 0,-369 159,-700 409,-929l-871 0c-149,276 -234,593 -234,929 0,1075 864,1949 1927,1949 1062,0 1926,-874 1926,-1949 0,-336 -84,-653 -233,-929l-872 0z"/>
  <path class="fil0" d="M3150 5867c57,55 147,95 241,95 147,0 244,-99 264,-226l-389 0 0 -120 390 0c-17,-129 -119,-225 -264,-225 -85,0 -162,32 -231,91l-71 -111c76,-76 192,-114 307,-114 253,0 414,184 414,415 0,241 -174,424 -420,424 -134,0 -241,-54 -315,-125l74 -104z"/>
  <path class="fil0" d="M4365 5955c75,0 117,-49 117,-118 0,-67 -43,-116 -117,-116l-158 0 0 234 158 0zm-15 -353c64,0 101,-46 101,-104 0,-58 -36,-100 -103,-100l-141 0 0 204 143 0zm-290 -331l289 0c147,0 251,75 251,209 0,75 -36,140 -98,174l0 2c89,26 131,108 131,191 0,162 -130,235 -280,235l-293 0 0 -811z"/>
  <path class="fil0" d="M5256 5961c149,0 267,-126 267,-290 0,-158 -118,-279 -267,-279 -148,0 -267,121 -267,279 0,164 119,290 267,290zm0 -704c239,0 419,182 419,414 0,238 -180,425 -419,425 -239,0 -419,-187 -419,-425 0,-232 180,-414 419,-414z"/>
  <path class="fil0" d="M6001 5492l0 -221 502 0 0 811 -148 0 0 -684 -213 0 0 97c0,393 -91,588 -316,596l0 -135c120,-16 175,-149 175,-464z"/>
  <path class="fil0" d="M7475 5961c145,0 260,-126 260,-290 0,-158 -115,-278 -260,-278 -143,0 -258,120 -258,278 0,164 115,290 258,290zm-677 -690l148 0 0 344 125 0c24,-205 190,-358 404,-358 235,0 412,182 412,414 0,238 -177,425 -412,425 -210,0 -372,-151 -402,-354l-127 0 0 340 -148 0 0 -811z"/>
  <polygon class="fil0" points="8135,5271 8282,5271 8282,5955 8633,5955 8633,5271 8780,5271 8780,5955 8876,5955 8876,6242 8745,6242 8745,6082 8135,6082 "/>
  <path class="fil0" d="M9116 5271l147 0 0 468c0,48 -8,126 -8,126l2 0c0,0 39,-79 69,-127l306 -467 146 0 0 811 -146 0 0 -467c0,-48 8,-126 8,-126l-2 0c0,0 -38,78 -68,126l-308 467 -146 0 0 -811z"/>
  <path class="fil0" d="M10458 5656l0 -258 -104 0c-52,0 -81,8 -101,20 -33,21 -51,61 -51,104 0,86 50,134 128,134l128 0zm-287 140c18,-31 26,-42 26,-42l0 -2c-100,-44 -144,-133 -144,-236 0,-114 57,-190 136,-223 34,-15 74,-22 154,-22l263 0 0 811 -148 0 0 -303 -118 0 -176 303 -165 0 172 -286z"/>
  <polygon class="fil0" points="11500,5398 11234,5398 11234,5271 11912,5271 11912,5398 11646,5398 11646,6082 11500,6082 "/>
  <path class="fil0" d="M12482 5961c148,0 267,-126 267,-290 0,-158 -119,-279 -267,-279 -149,0 -267,121 -267,279 0,164 118,290 267,290zm0 -704c239,0 419,182 419,414 0,238 -180,425 -419,425 -239,0 -419,-187 -419,-425 0,-232 180,-414 419,-414z"/>
  <path class="fil0" d="M13433 5674c86,0 136,-55 136,-139 0,-84 -50,-137 -133,-137l-141 0 0 276 138 0zm-285 -403l313 0c152,0 258,106 258,264 0,157 -106,267 -258,267l-166 0 0 280 -147 0 0 -811z"/>
  <polygon class="fil0" points="13944,5271 14411,5271 14411,5398 14092,5398 14092,6082 13944,6082 "/>
  <path class="fil0" d="M14978 5961c149,0 267,-126 267,-290 0,-158 -118,-279 -267,-279 -148,0 -267,121 -267,279 0,164 119,290 267,290zm0 -704c239,0 419,182 419,414 0,238 -180,425 -419,425 -239,0 -419,-187 -419,-425 0,-232 180,-414 419,-414z"/>
  <path class="fil0" d="M15949 5955c75,0 118,-49 118,-118 0,-67 -44,-116 -118,-116l-158 0 0 234 158 0zm-15 -353c64,0 101,-46 101,-104 0,-58 -36,-100 -103,-100l-141 0 0 204 143 0zm-290 -331l289 0c147,0 251,75 251,209 0,75 -36,140 -98,174l0 2c89,26 132,108 132,191 0,162 -131,235 -280,235l-294 0 0 -811z"/>
  <path class="fil0" d="M16580 5492l0 -221 501 0 0 811 -147 0 0 -684 -214 0 0 97c0,393 -90,588 -315,596l0 -135c120,-16 175,-149 175,-464z"/>
  <path class="fil0" d="M17377 5271l147 0 0 468c0,48 -8,126 -8,126l2 0c0,0 39,-79 69,-127l306 -467 146 0 0 811 -146 0 0 -467c0,-48 8,-126 8,-126l-2 0c0,0 -38,78 -68,126l-308 467 -146 0 0 -811z"/>
 </g>
</svg>
